<?xml version="1.0" standalone="no"?>
<!DOCTYPE svg PUBLIC "-//W3C//DTD SVG 20010904//EN"
 "http://www.w3.org/TR/2001/REC-SVG-20010904/DTD/svg10.dtd">
<svg version="1.0" xmlns="http://www.w3.org/2000/svg"
 width="1600.000000pt" height="1600.000000pt" viewBox="0 0 1600.000000 1600.000000"
 preserveAspectRatio="xMidYMid meet">

<g transform="translate(0.000000,1600.000000) scale(0.100000,-0.100000)"
fill="#000000" stroke="none">
<path d="M1915 14663 c-269 -38 -496 -240 -563 -500 -16 -63 -17 -168 -17
-1398 0 -1488 -5 -1379 72 -1535 29 -57 59 -97 128 -165 139 -140 270 -195
466 -195 194 0 328 57 469 199 91 92 132 159 171 276 23 69 23 80 27 554 l3
485 1797 -1795 c1930 -1928 1839 -1841 1992 -1891 91 -29 272 -36 360 -14 242
60 436 254 496 496 22 88 15 269 -14 360 -50 153 37 62 -1891 1992 l-1795
1797 485 3 c474 4 485 4 554 27 121 40 184 79 280 176 140 139 195 270 195
465 0 195 -55 326 -195 465 -96 96 -159 136 -280 177 l-70 23 -1320 1 c-726 1
-1333 -1 -1350 -3z"/>
<path d="M9170 7315 c-241 -66 -433 -264 -486 -501 -22 -99 -15 -260 15 -354
48 -153 -39 -61 1890 -1992 l1795 -1797 -485 -3 c-474 -4 -485 -4 -554 -27
-121 -40 -184 -79 -280 -176 -72 -71 -99 -106 -129 -168 -46 -96 -66 -185 -66
-297 0 -112 20 -201 66 -297 30 -62 57 -97 129 -168 98 -99 162 -138 285 -177
l75 -23 1340 0 c1270 0 1343 1 1405 18 231 66 411 246 477 477 17 62 18 135
18 1405 l0 1340 -23 75 c-39 123 -78 187 -177 285 -139 140 -270 195 -465 195
-195 0 -326 -55 -465 -195 -69 -68 -99 -108 -128 -165 -70 -141 -70 -142 -75
-674 l-4 -479 -1796 1794 c-1930 1928 -1838 1841 -1992 1891 -86 28 -289 35
-370 13z"/>
</g>
</svg>
