<svg xmlns="http://www.w3.org/2000/svg" viewBox="0 0 16 16" id="Tag--Streamline-Font-Awesome" height="16" width="16">
  <desc>
    Tag Streamline Icon: https://streamlinehq.com
  </desc>
<!--! Font Awesome Free 6.5.2 by @fontawesome - https://fontawesome.com License - https://fontawesome.com/license/free (Icons: CC BY 4.0, Fonts: SIL OFL 1.1, Code: MIT License) Copyright 2024 Fonticons, Inc.-->
  <path d="M0.16000714285714285 1.876942857142857v5.358689285714285c0 0.6093500000000001 0.24015357142857144 1.1936071428571429 0.6702821428571428 1.623735714285714l6.3085571428571425 6.3085571428571425c0.8961 0.8961 2.347785714285714 0.8961 3.243889285714286 0l4.785182142857142 -4.7851857142857135c0.8961 -0.8961 0.8961 -2.347785714285714 0 -3.2438857142857143L8.859360714285714 0.8302964285714285c-0.4301285714285714 -0.4301285714285714 -1.0143857142857142 -0.6702821428571428 -1.623735714285714 -0.6702821428571428H1.8805214285714285C0.9306535714285713 0.15642857142857142 0.16000714285714285 0.927075 0.16000714285714285 1.876942857142857Zm4.014535714285714 1.1470107142857142c0.8829678571428571 0 1.434825 0.9558428571428571 0.9933392857142858 1.7205142857142857 -0.20489285714285713 0.35488571428571425 -0.5835535714285714 0.5735071428571428 -0.9933392857142858 0.5735071428571428 -0.8829714285714285 0 -1.434825 -0.9558428571428571 -0.9933392857142858 -1.7205178571428572 0.20489285714285713 -0.35488571428571425 0.58355 -0.5735035714285713 0.9933392857142858 -0.5735035714285713Z" fill="#000000" stroke-width="0.0357"></path>
</svg>