<svg xmlns="http://www.w3.org/2000/svg" viewBox="0 0 16 16" id="Unlock--Streamline-Font-Awesome" height="16" width="16">
  <desc>
    Unlock Streamline Icon: https://streamlinehq.com
  </desc>
<!--! Font Awesome Free 6.5.2 by @fontawesome - https://fontawesome.com License - https://fontawesome.com/license/free (Icons: CC BY 4.0, Fonts: SIL OFL 1.1, Code: MIT License) Copyright 2024 Fonticons, Inc.-->
  <path d="M5.55 4.569999999999999c0 -1.3536249999999999 1.0963749999999999 -2.4499999999999997 2.4499999999999997 -2.4499999999999997 0.9769392857142856 0 1.8191249999999999 0.5696249999999999 2.2141892857142857 1.3995642857142858 0.23275 0.49 0.8176857142857142 0.6982499999999999 1.304625 0.4655s0.6982499999999999 -0.8176892857142857 0.4655 -1.304625C11.276874999999999 1.1920642857142856 9.760939285714286 0.16 8 0.16c-2.434685714285714 0 -4.41 1.9753142857142856 -4.41 4.41v1.4699999999999998H3.0999999999999996c-1.0810607142857143 0 -1.96 0.8789392857142856 -1.96 1.96v5.879999999999999c0 1.0810607142857143 0.8789392857142856 1.96 1.96 1.96h9.799999999999999c1.0810607142857143 0 1.96 -0.8789392857142856 1.96 -1.96V8c0 -1.0810607142857143 -0.8789392857142856 -1.96 -1.96 -1.96H5.55v-1.4699999999999998Z" fill="#000000" stroke-width="0.0357"></path>
</svg>